<svg id="Layer_1" data-name="Layer 1" xmlns="http://www.w3.org/2000/svg" viewBox="0 0 16 19"><defs><style>.cls-1{fill:#737272;}</style></defs><title>icon-trash</title><path class="cls-1" d="M11.12,5.4h-.58a.4.4,0,0,0,0,.8h.58a.4.4,0,0,0,0-.8Z" transform="translate(0 0.14)"/><path class="cls-1" d="M14.05,2.23H11.71A2.37,2.37,0,0,0,9.37-.14H6.44A2.36,2.36,0,0,0,4.1,2.23H2A2,2,0,0,0,0,4.21V5A1.19,1.19,0,0,0,1,6.18L2,17.05a2,2,0,0,0,2,1.81H12a2,2,0,0,0,2-1.81L15,6.18A1.19,1.19,0,0,0,16,5v-.8A2,2,0,0,0,14.05,2.23ZM6.44.65H9.37a1.58,1.58,0,0,1,1.56,1.58h-6A1.57,1.57,0,0,1,6.44.65ZM15.22,5a.39.39,0,0,1-.39.39h-.2a.41.41,0,0,0-.39.36L13.21,17A1.19,1.19,0,0,1,12,18.08H4A1.19,1.19,0,0,1,2.79,17L1.8,6.2h7a.4.4,0,0,0,0-.8H1.17A.39.39,0,0,1,.78,5v-.8A1.18,1.18,0,0,1,2,3h12.1a1.18,1.18,0,0,1,1.17,1.18Z" transform="translate(0 0.14)"/><path class="cls-1" d="M4.88,7.78a.39.39,0,0,0-.39.4v7.53a.39.39,0,0,0,.39.39.4.4,0,0,0,.39-.39V8.18A.4.4,0,0,0,4.88,7.78Z" transform="translate(0 0.14)"/><path class="cls-1" d="M8,7.78a.4.4,0,0,0-.39.4v7.53a.39.39,0,1,0,.78,0V8.18A.4.4,0,0,0,8,7.78Z" transform="translate(0 0.14)"/><path class="cls-1" d="M11.12,7.78a.4.4,0,0,0-.39.4v7.53a.4.4,0,0,0,.39.39.39.39,0,0,0,.39-.39V8.18A.39.39,0,0,0,11.12,7.78Z" transform="translate(0 0.14)"/></svg>